<?xml version="1.0" standalone="no"?>
<!DOCTYPE svg PUBLIC "-//W3C//DTD SVG 20010904//EN"
 "http://www.w3.org/TR/2001/REC-SVG-20010904/DTD/svg10.dtd">
<svg version="1.0" xmlns="http://www.w3.org/2000/svg"
 width="261.000000pt" height="261.000000pt" viewBox="0 0 261.000000 261.000000"
 preserveAspectRatio="xMidYMid meet">
<metadata>
Created by potrace 1.11, written by Peter Selinger 2001-2013
</metadata>
<g transform="translate(0.000000,261.000000) scale(0.100000,-0.100000)"
fill="#000000" stroke="none">
<path d="M1169 2596 c-2 -2 -26 -7 -54 -10 -400 -53 -772 -318 -964 -686 -46
-89 -103 -240 -116 -308 -23 -121 -28 -171 -28 -271 -1 -156 7 -223 45 -366
126 -474 536 -846 1028 -931 99 -17 313 -23 390 -10 25 4 59 9 75 12 99 16
236 65 355 126 199 101 371 259 494 452 84 133 128 233 166 380 30 117 35 166
34 331 0 118 -5 173 -23 255 -70 321 -253 600 -521 791 -133 95 -322 179 -470
208 -30 6 -66 14 -80 17 -30 7 -324 16 -331 10z"/>
</g>
</svg>
