<?xml version="1.0" standalone="no"?>
<!DOCTYPE svg PUBLIC "-//W3C//DTD SVG 20010904//EN"
 "http://www.w3.org/TR/2001/REC-SVG-20010904/DTD/svg10.dtd">
<svg version="1.0" xmlns="http://www.w3.org/2000/svg"
 width="264.000000pt" height="264.000000pt" viewBox="0 0 264.000000 264.000000"
 preserveAspectRatio="xMidYMid meet">
<metadata>
Created by potrace 1.11, written by Peter Selinger 2001-2013
</metadata>
<g transform="translate(0.000000,264.000000) scale(0.100000,-0.100000)"
fill="#000000" stroke="none">
<path d="M1228 2625 c-2 -1 -34 -5 -72 -9 -343 -32 -709 -254 -914 -554 -159
-232 -235 -481 -234 -764 0 -53 3 -109 6 -125 3 -15 8 -46 11 -68 3 -23 8 -51
10 -63 3 -12 7 -32 10 -44 21 -96 98 -278 157 -373 98 -155 241 -303 390 -404
106 -71 323 -165 428 -185 14 -3 52 -10 85 -17 97 -19 431 -15 465 6 4 2 22 7
40 10 70 12 198 59 293 106 330 164 572 453 676 806 61 206 67 468 17 672
-133 533 -560 918 -1106 997 -38 6 -257 13 -262 9z"/>
</g>
</svg>
